{"title":"The Veteran 2011 DVDRip XViD DTRG","uid":6552600,"size":810879785,"categoryP":"video","categoryS":"movies","magnet":"?xt=urn:btih:a21f676f5386bcc785bdd0c8da8d81700629d532&amp;dn=The+Veteran+2011+DVDRip+XViD+DTRG&amp;tr=udp%3A%2F%2Ftracker.openbittorrent.com%3A80&amp;tr=udp%3A%2F%2Fopen.demonii.com%3A1337&amp;tr=udp%3A%2F%2Ftracker.coppersurfer.tk%3A6969&amp;tr=udp%3A%2F%2Fexodus.desync.com%3A6969","seeders":0,"leechers":1,"uploader":"SAFCukO09","files":3,"time":1311122945,"description":"Format : AVI\nFormat/Info : Audio Video Interleave\nFile size : 773 MiB\nDuration : 1h 34mn\nOverall bit rate : 1 148 Kbps\nWriting library : VirtualDub build 32842/release\n\nVideo\nID : 0\nFormat : MPEG-4 Visual\nFormat profile : Advanced Simple@L5\nFormat settings, BVOP : 2\nFormat settings, QPel : No\nFormat settings, GMC : No warppoints\nFormat settings, Matrix : Default (H.263)\nMuxing mode : Packed bitstream\nCodec ID : XVID\nCodec ID/Hint : XviD\nDuration : 1h 34mn\nBit rate : 1 010 Kbps\nWidth : 608 pixels\nHeight : 336 pixels\nDisplay aspect ratio : 16:9\nFrame rate : 25.000 fps\nColor space : YUV\nChroma subsampling : 4:2:0\nBit depth : 8 bits\nScan type : Progressive\nCompression mode : Lossy\nBits/(Pixel*Frame) : 0.198\nStream size : 681 MiB (88%)\nWriting library : XviD 64\n\nAudio\nID : 1\nFormat : MPEG Audio\nFormat version : Version 1\nFormat profile : Layer 3\nMode : Joint stereo\nMode extension : MS Stereo\nCodec ID : 55\nCodec ID/Hint : MP3\nDuration : 1h 34mn\nBit rate mode : Constant\nBit rate : 128 Kbps\nChannel(s) : 2 channels\nSampling rate : 48.0 KHz\nCompression mode : Lossy\nStream size : 86.2 MiB (11%)\nAlignment : Aligned on interleaves\nInterleave, duration : 40 ms (1.00 video frame)\nInterleave, preload duration : 504 ms\nWriting library : LAME3.97\nEncoding settings : -m j -V 4 -q 2 -lowpass 17 -b 128\n\n\n\n\n\n &lt;a href=&quot;\nhttp://www.imdb.com/title/tt1653700/&quot; rel=&quot;nofollow&quot; target=&quot;_NEW&quot;&gt;\nhttp://www.imdb.com/title/tt1653700/&lt;/a&gt;\n\n\n\n\n\n\n\n\n\nUsers: (34 votes) 2 reviews | Critics: 11 reviews\n\n\nA soldier returning from the war in Afghanistan uncovers a conspiracy involving the intelligence services and a gang of drug dealers.\n\nDirector: Matthew Hope\nWriters: Matthew Hope (screenplay), Matthew Hope (story), and 1 more credit Ã‚Â»\nStars: Toby Kebbell, Brian Cox and Tony Curran\n\n\n\n\n\n\n\n\n\n\n\n\n\n\n\n\n\n\n\n\nSource Used\n\n\n\nDVDR- EGEN\n\n\n\nEnjoy\n\n\n\n\n\nGreetz to IMAGiNE,Flawl3ss,DiLLoN,BDK,NOiR,TOXiC,THC,Ez,Rx,Boobyblue,TaRiQ786,BHRG","torrent":{"xt":"urn:btih:a21f676f5386bcc785bdd0c8da8d81700629d532","amp;dn":"The+Veteran+2011+DVDRip+XViD+DTRG","amp;tr":["udp%3A%2F%2Ftracker.openbittorrent.com%3A80","udp%3A%2F%2Fopen.demonii.com%3A1337","udp%3A%2F%2Ftracker.coppersurfer.tk%3A6969","udp%3A%2F%2Fexodus.desync.com%3A6969"],"infoHash":"a21f676f5386bcc785bdd0c8da8d81700629d532","infoHashBuffer":{"type":"Buffer","data":[162,31,103,111,83,134,188,199,133,189,208,200,218,141,129,112,6,41,213,50]},"announce":[],"urlList":[]}}